<?xml version="1.0" encoding="UTF-8"?><svg xmlns="http://www.w3.org/2000/svg" xmlns:xlink="http://www.w3.org/1999/xlink" fill-opacity="1" color-rendering="auto" color-interpolation="auto" text-rendering="auto" stroke="black" stroke-linecap="square" width="321" stroke-miterlimit="10" shape-rendering="auto" stroke-opacity="1" fill="black" stroke-dasharray="none" font-weight="normal" stroke-width="1" height="882" font-family="'Dialog'" font-style="normal" stroke-linejoin="miter" font-size="12px" stroke-dashoffset="0" image-rendering="auto">
  <!--Generated by ySVG 2.5-->
  <defs id="genericDefs"/>
  <g>
    <defs id="defs1">
      <linearGradient x1="152" gradientUnits="userSpaceOnUse" x2="232" y1="250" y2="290" id="linearGradient1" spreadMethod="reflect">
        <stop stop-opacity="1" stop-color="rgb(232,238,247)" offset="0%"/>
        <stop stop-opacity="1" stop-color="rgb(183,201,227)" offset="100%"/>
      </linearGradient>
      <linearGradient x1="152" gradientUnits="userSpaceOnUse" x2="232" y1="337" y2="377" id="linearGradient2" spreadMethod="reflect">
        <stop stop-opacity="1" stop-color="rgb(232,238,247)" offset="0%"/>
        <stop stop-opacity="1" stop-color="rgb(183,201,227)" offset="100%"/>
      </linearGradient>
      <linearGradient x1="262" gradientUnits="userSpaceOnUse" x2="342" y1="337" y2="377" id="linearGradient3" spreadMethod="reflect">
        <stop stop-opacity="1" stop-color="rgb(232,238,247)" offset="0%"/>
        <stop stop-opacity="1" stop-color="rgb(183,201,227)" offset="100%"/>
      </linearGradient>
      <linearGradient x1="152" gradientUnits="userSpaceOnUse" x2="232" y1="407" y2="447" id="linearGradient4" spreadMethod="reflect">
        <stop stop-opacity="1" stop-color="rgb(232,238,247)" offset="0%"/>
        <stop stop-opacity="1" stop-color="rgb(183,201,227)" offset="100%"/>
      </linearGradient>
      <linearGradient x1="152" gradientUnits="userSpaceOnUse" x2="232" y1="477" y2="517" id="linearGradient5" spreadMethod="reflect">
        <stop stop-opacity="1" stop-color="rgb(232,238,247)" offset="0%"/>
        <stop stop-opacity="1" stop-color="rgb(183,201,227)" offset="100%"/>
      </linearGradient>
      <linearGradient x1="152" gradientUnits="userSpaceOnUse" x2="232" y1="547" y2="587" id="linearGradient6" spreadMethod="reflect">
        <stop stop-opacity="1" stop-color="rgb(232,238,247)" offset="0%"/>
        <stop stop-opacity="1" stop-color="rgb(183,201,227)" offset="100%"/>
      </linearGradient>
      <linearGradient x1="152" gradientUnits="userSpaceOnUse" x2="232" y1="638" y2="678" id="linearGradient7" spreadMethod="reflect">
        <stop stop-opacity="1" stop-color="rgb(232,238,247)" offset="0%"/>
        <stop stop-opacity="1" stop-color="rgb(183,201,227)" offset="100%"/>
      </linearGradient>
      <linearGradient x1="152" gradientUnits="userSpaceOnUse" x2="232" y1="708" y2="748" id="linearGradient8" spreadMethod="reflect">
        <stop stop-opacity="1" stop-color="rgb(232,238,247)" offset="0%"/>
        <stop stop-opacity="1" stop-color="rgb(183,201,227)" offset="100%"/>
      </linearGradient>
      <linearGradient x1="152" gradientUnits="userSpaceOnUse" x2="232" y1="778" y2="818" id="linearGradient9" spreadMethod="reflect">
        <stop stop-opacity="1" stop-color="rgb(232,238,247)" offset="0%"/>
        <stop stop-opacity="1" stop-color="rgb(183,201,227)" offset="100%"/>
      </linearGradient>
      <linearGradient x1="262" gradientUnits="userSpaceOnUse" x2="342" y1="778" y2="818" id="linearGradient10" spreadMethod="reflect">
        <stop stop-opacity="1" stop-color="rgb(232,238,247)" offset="0%"/>
        <stop stop-opacity="1" stop-color="rgb(183,201,227)" offset="100%"/>
      </linearGradient>
      <clipPath clipPathUnits="userSpaceOnUse" id="clipPath1">
        <path d="M0 0 L321 0 L321 882 L0 882 L0 0 Z"/>
      </clipPath>
      <clipPath clipPathUnits="userSpaceOnUse" id="clipPath2">
        <path d="M138 240 L352 240 L352 828 L138 828 L138 240 Z"/>
      </clipPath>
    </defs>
    <g fill="url(#linearGradient1)" text-rendering="geometricPrecision" shape-rendering="geometricPrecision" transform="matrix(1.5,0,0,1.5,-207,-360)" stroke="url(#linearGradient1)">
      <ellipse rx="40" ry="20" clip-path="url(#clipPath2)" cx="192" cy="270" stroke="none"/>
    </g>
    <g text-rendering="geometricPrecision" stroke-miterlimit="1.45" shape-rendering="geometricPrecision" transform="matrix(1.5,0,0,1.5,-207,-360)" stroke-linecap="butt">
      <ellipse rx="40" fill="none" ry="20" clip-path="url(#clipPath2)" cx="192" cy="270"/>
      <text x="179.6543" xml:space="preserve" y="274.5352" clip-path="url(#clipPath2)" font-family="sans-serif" stroke="none">SCM</text>
    </g>
    <g fill="url(#linearGradient2)" text-rendering="geometricPrecision" shape-rendering="geometricPrecision" transform="matrix(1.5,0,0,1.5,-207,-360)" stroke="url(#linearGradient2)">
      <path d="M152 337 L232 337 L232 377 L152 377 Z" stroke="none" clip-path="url(#clipPath2)"/>
    </g>
    <g text-rendering="geometricPrecision" stroke-miterlimit="1.45" shape-rendering="geometricPrecision" transform="matrix(1.5,0,0,1.5,-207,-360)" stroke-linecap="butt">
      <path fill="none" d="M152 337 L232 337 L232 377 L152 377 Z" clip-path="url(#clipPath2)"/>
      <text x="169.9512" xml:space="preserve" y="361.5352" clip-path="url(#clipPath2)" font-family="sans-serif" stroke="none">Full Test</text>
    </g>
    <g fill="url(#linearGradient3)" text-rendering="geometricPrecision" shape-rendering="geometricPrecision" transform="matrix(1.5,0,0,1.5,-207,-360)" stroke="url(#linearGradient3)">
      <path d="M262 337 L342 337 L342 377 L262 377 Z" stroke="none" clip-path="url(#clipPath2)"/>
    </g>
    <g text-rendering="geometricPrecision" stroke-miterlimit="1.45" shape-rendering="geometricPrecision" transform="matrix(1.5,0,0,1.5,-207,-360)" stroke-linecap="butt">
      <path fill="none" d="M262 337 L342 337 L342 377 L262 377 Z" clip-path="url(#clipPath2)"/>
      <text x="277.7891" xml:space="preserve" y="361.5352" clip-path="url(#clipPath2)" font-family="sans-serif" stroke="none">Fast Test</text>
    </g>
    <g fill="url(#linearGradient4)" text-rendering="geometricPrecision" shape-rendering="geometricPrecision" transform="matrix(1.5,0,0,1.5,-207,-360)" stroke="url(#linearGradient4)">
      <path d="M152 407 L232 407 L232 447 L152 447 Z" stroke="none" clip-path="url(#clipPath2)"/>
    </g>
    <g text-rendering="geometricPrecision" stroke-miterlimit="1.45" shape-rendering="geometricPrecision" transform="matrix(1.5,0,0,1.5,-207,-360)" stroke-linecap="butt">
      <path fill="none" d="M152 407 L232 407 L232 447 L152 447 Z" clip-path="url(#clipPath2)"/>
      <text x="166.3535" xml:space="preserve" y="423.9766" clip-path="url(#clipPath2)" font-family="sans-serif" stroke="none">Deploy To</text>
      <text x="162.2812" xml:space="preserve" y="439.0938" clip-path="url(#clipPath2)" font-family="sans-serif" stroke="none">Test Server</text>
    </g>
    <g fill="url(#linearGradient5)" text-rendering="geometricPrecision" shape-rendering="geometricPrecision" transform="matrix(1.5,0,0,1.5,-207,-360)" stroke="url(#linearGradient5)">
      <path d="M152 477 L232 477 L232 517 L152 517 Z" stroke="none" clip-path="url(#clipPath2)"/>
    </g>
    <g text-rendering="geometricPrecision" stroke-miterlimit="1.45" shape-rendering="geometricPrecision" transform="matrix(1.5,0,0,1.5,-207,-360)" stroke-linecap="butt">
      <path fill="none" d="M152 477 L232 477 L232 517 L152 517 Z" clip-path="url(#clipPath2)"/>
      <text x="161.918" xml:space="preserve" y="501.5352" clip-path="url(#clipPath2)" font-family="sans-serif" stroke="none">Stress Test</text>
    </g>
    <g fill="url(#linearGradient6)" text-rendering="geometricPrecision" shape-rendering="geometricPrecision" transform="matrix(1.5,0,0,1.5,-207,-360)" stroke="url(#linearGradient6)">
      <path d="M152 547 L232 547 L232 587 L152 587 Z" stroke="none" clip-path="url(#clipPath2)"/>
    </g>
    <g text-rendering="geometricPrecision" stroke-miterlimit="1.45" shape-rendering="geometricPrecision" transform="matrix(1.5,0,0,1.5,-207,-360)" stroke-linecap="butt">
      <path fill="none" d="M152 547 L232 547 L232 587 L152 587 Z" clip-path="url(#clipPath2)"/>
      <text x="159.6445" xml:space="preserve" y="571.5352" clip-path="url(#clipPath2)" font-family="sans-serif" stroke="none">Manual Test</text>
    </g>
    <g fill="url(#linearGradient7)" text-rendering="geometricPrecision" shape-rendering="geometricPrecision" transform="matrix(1.5,0,0,1.5,-207,-360)" stroke="url(#linearGradient7)">
      <path d="M152 638 L232 638 L232 678 L152 678 Z" stroke="none" clip-path="url(#clipPath2)"/>
    </g>
    <g text-rendering="geometricPrecision" stroke-miterlimit="1.45" shape-rendering="geometricPrecision" transform="matrix(1.5,0,0,1.5,-207,-360)" stroke-linecap="butt">
      <path fill="none" d="M152 638 L232 638 L232 678 L152 678 Z" clip-path="url(#clipPath2)"/>
      <text x="166.3535" xml:space="preserve" y="654.9766" clip-path="url(#clipPath2)" font-family="sans-serif" stroke="none">Deploy To</text>
      <text x="164.3262" xml:space="preserve" y="670.0938" clip-path="url(#clipPath2)" font-family="sans-serif" stroke="none">Production</text>
    </g>
    <g fill="url(#linearGradient8)" text-rendering="geometricPrecision" shape-rendering="geometricPrecision" transform="matrix(1.5,0,0,1.5,-207,-360)" stroke="url(#linearGradient8)">
      <path d="M192 708 L232 728 L192 748 L152 728 Z" stroke="none" clip-path="url(#clipPath2)"/>
    </g>
    <g text-rendering="geometricPrecision" stroke-miterlimit="1.45" shape-rendering="geometricPrecision" transform="matrix(1.5,0,0,1.5,-207,-360)" stroke-linecap="butt">
      <path fill="none" d="M192 708 L232 728 L192 748 L152 728 Z" clip-path="url(#clipPath2)"/>
      <text x="164.7949" xml:space="preserve" y="732.5352" clip-path="url(#clipPath2)" font-family="sans-serif" stroke="none">Success ?</text>
    </g>
    <g fill="url(#linearGradient9)" text-rendering="geometricPrecision" shape-rendering="geometricPrecision" transform="matrix(1.5,0,0,1.5,-207,-360)" stroke="url(#linearGradient9)">
      <rect x="152" y="778" clip-path="url(#clipPath2)" width="80" rx="20" ry="20" height="40" stroke="none"/>
    </g>
    <g text-rendering="geometricPrecision" stroke-miterlimit="1.45" shape-rendering="geometricPrecision" transform="matrix(1.5,0,0,1.5,-207,-360)" stroke-linecap="butt">
      <rect x="152" y="778" clip-path="url(#clipPath2)" fill="none" width="80" rx="20" ry="20" height="40"/>
      <text x="182.1738" xml:space="preserve" y="802.5352" clip-path="url(#clipPath2)" font-family="sans-serif" stroke="none">End</text>
    </g>
    <g fill="url(#linearGradient10)" text-rendering="geometricPrecision" shape-rendering="geometricPrecision" transform="matrix(1.5,0,0,1.5,-207,-360)" stroke="url(#linearGradient10)">
      <rect x="262" y="778" clip-path="url(#clipPath2)" width="80" rx="20" ry="20" height="40" stroke="none"/>
    </g>
    <g text-rendering="geometricPrecision" stroke-miterlimit="1.45" shape-rendering="geometricPrecision" transform="matrix(1.5,0,0,1.5,-207,-360)" stroke-linecap="butt">
      <rect x="262" y="778" clip-path="url(#clipPath2)" fill="none" width="80" rx="20" ry="20" height="40"/>
      <text x="277.5547" xml:space="preserve" y="802.5352" clip-path="url(#clipPath2)" font-family="sans-serif" stroke="none">Roll Back</text>
    </g>
    <g text-rendering="geometricPrecision" stroke-miterlimit="1.45" shape-rendering="geometricPrecision" transform="matrix(1.5,0,0,1.5,-207,-360)" stroke-linecap="butt">
      <path fill="none" d="M192 290.0083 L192 329.0137" clip-path="url(#clipPath2)"/>
    </g>
    <g text-rendering="geometricPrecision" stroke-miterlimit="1.45" shape-rendering="geometricPrecision" transform="matrix(1.5,0,0,1.5,-207,-360)" stroke-linecap="butt">
      <path d="M192 337.0137 L197 325.0137 L192 328.0137 L187 325.0137 Z" stroke="none" clip-path="url(#clipPath2)"/>
      <text x="172.4648" xml:space="preserve" y="318.0352" clip-path="url(#clipPath2)" font-family="sans-serif" stroke="none">Merged</text>
      <path fill="none" d="M231.9878 270 L302 270 L302 328.9917" clip-path="url(#clipPath2)"/>
      <path d="M302 336.9917 L307 324.9917 L302 327.9917 L297 324.9917 Z" clip-path="url(#clipPath2)" stroke="none"/>
      <text x="293.3691" xml:space="preserve" y="300.7559" clip-path="url(#clipPath2)" font-family="sans-serif" stroke="none">MR</text>
      <path fill="none" d="M192 376.9951 L192 399.0273" clip-path="url(#clipPath2)"/>
      <path d="M192 407.0273 L197 395.0273 L192 398.0273 L187 395.0273 Z" clip-path="url(#clipPath2)" stroke="none"/>
      <path fill="none" d="M192 446.9951 L192 469.0273" clip-path="url(#clipPath2)"/>
      <path d="M192 477.0273 L197 465.0273 L192 468.0273 L187 465.0273 Z" clip-path="url(#clipPath2)" stroke="none"/>
      <path fill="none" d="M192 516.9951 L192 539.0273" clip-path="url(#clipPath2)"/>
      <path d="M192 547.0273 L197 535.0273 L192 538.0273 L187 535.0273 Z" clip-path="url(#clipPath2)" stroke="none"/>
      <path fill="none" stroke-dasharray="6,2" d="M192 587.0396 L192 633.0078" clip-path="url(#clipPath2)"/>
      <path stroke-dasharray="6,2" d="M192 637.0078 L198 625.0078 L192 637.0078 L186 625.0078 Z" clip-path="url(#clipPath2)" stroke="none"/>
      <path fill="none" stroke-miterlimit="10" d="M192 637.0078 L198 625.0078 L192 637.0078 L186 625.0078 Z" clip-path="url(#clipPath2)" stroke-linecap="square"/>
      <text x="178.3418" xml:space="preserve" y="609.4766" clip-path="url(#clipPath2)" font-family="sans-serif" stroke="none">Need</text>
      <text x="177.7383" xml:space="preserve" y="624.5938" clip-path="url(#clipPath2)" font-family="sans-serif" stroke="none">Verify</text>
      <path fill="none" d="M192 677.9951 L192 700.0273" clip-path="url(#clipPath2)"/>
      <path d="M192 708.0273 L197 696.0273 L192 699.0273 L187 696.0273 Z" clip-path="url(#clipPath2)" stroke="none"/>
      <path fill="none" d="M192 747.9951 L192 770.0273" clip-path="url(#clipPath2)"/>
      <path d="M192 778.0273 L197 766.0273 L192 769.0273 L187 766.0273 Z" clip-path="url(#clipPath2)" stroke="none"/>
      <text x="150.6152" xml:space="preserve" y="767.5352" clip-path="url(#clipPath2)" font-family="sans-serif" stroke="none">True</text>
      <path fill="none" d="M231.9878 728 L302 728 L302 770.0049" clip-path="url(#clipPath2)"/>
      <path d="M302 778.0049 L307 766.0049 L302 769.0049 L297 766.0049 Z" clip-path="url(#clipPath2)" stroke="none"/>
      <text x="263.5508" xml:space="preserve" y="732.5352" clip-path="url(#clipPath2)" font-family="sans-serif" stroke="none">False</text>
    </g>
  </g>
</svg>
